# xmcd
#
# Track frame offsets: 
#        150
#        9352
#        20182
#        29602
#        39885
#        51695
#        61202
#        72180
#        83652
#        95572
#        105462
#        114275
#        124425
#        134932
#        144957
#        155062
#        166020
#
# Disc length: 2360 seconds
#
# Revision: 0
# Processed by: cddbd v1.5.2PL0 Copyright (c) Steve Scherf et al.
# Submitted via: ExactAudioCopy v0.99pb4
#
DISCID=eb093611
DTITLE=Jeff Beck and The Big Town Playboys - Crazy Legs
DYEAR=1995
DGENRE=
TTITLE0=Race With the Devil
TTITLE1=Cruisin'
TTITLE2=Crazy Legs
TTITLE3=Double Talkin' Baby
TTITLE4=Woman Love
TTITLE5=Lotta Lovin'
TTITLE6=Catman
TTITLE7=Pink Thunderbird
TTITLE8=Baby Blue
TTITLE9=You Better Believe
TTITLE10=Who Slapped John?
TTITLE11=Say Mama
TTITLE12=Red Blue Jeans and a Pony Tail
TTITLE13=Five Feet of Lovin'
TTITLE14=B-I-Bickey-Bi, Bo-Bo-Go
TTITLE15=Blues Stay Away from Me
TTITLE16=Pretty Pretty Baby
EXTD=
EXTT0=
EXTT1=
EXTT2=
EXTT3=
EXTT4=
EXTT5=
EXTT6=
EXTT7=
EXTT8=
EXTT9=
EXTT10=
EXTT11=
EXTT12=
EXTT13=
EXTT14=
EXTT15=
EXTT16=
PLAYORDER=
